<svg version="1.2" xmlns="http://www.w3.org/2000/svg" viewBox="0 0 522 33" width="522" height="33"><style>.a{fill:none}.b{fill:none;stroke:#666;stroke-linecap:round;stroke-linejoin:round;stroke-width:.4}.c{fill:#666}.d{fill:#f2f2f2}.e{fill:#9f9f9f}.f{fill:#d8d8d8}.g{fill:none;stroke:#9f9f9f;stroke-linecap:round;stroke-linejoin:round;stroke-width:.4}.h{fill:#fff}</style><path fill-rule="evenodd" class="a" d="m252.7 20.3c0.1 0.4-0.1 0.7-0.5 0.9h-0.2c-0.2-0.1-0.3-0.2-0.3-0.4 0-0.2 0.1-0.5 0.4-0.6 0.1-0.1 0.3-0.1 0.4-0.1 0.1 0 0.2 0.1 0.2 0.2zm29.7-7.2c0.2 0 0.2 0.1 0.2 0.2q0 0.3-0.3 0.3h-0.6c0-0.2 0.1-0.5 0.1-0.5zm-27.3 7.7l0.4-0.6v0.6zm-13.6-0.7c0 0 0.1 0.1 0.1 0.2q0 0.3-0.3 0.3h-0.3c0-0.2 0.1-0.5 0.2-0.5zm-24.5 7.2h0.4v0.6c-0.1 0.1-0.3 0.2-0.4 0.2h-0.1c-0.3 0-0.4-0.2-0.4-0.4 0-0.3 0.2-0.4 0.5-0.4zm26.1-7c0 0.1-0.1 0.2-0.2 0.2h-0.5l0.1-0.4h0.5c0.1 0 0.1 0.1 0.1 0.2zm16.7 0.1c0 0.1-0.1 0.2-0.3 0.2h-0.3l0.1-0.4h0.4c0.1 0 0.1 0.1 0.1 0.2zm-15 0c0.1 0.2 0 0.4-0.2 0.6-0.1 0.1-0.3 0.2-0.4 0.2-0.2 0-0.3-0.1-0.3-0.4 0-0.2 0.1-0.5 0.3-0.6 0.1 0 0.2-0.1 0.3-0.1h0.1c0.1 0 0.2 0.1 0.2 0.3zm26.7 0c0 0.3-0.1 0.5-0.4 0.6-0.1 0.1-0.2 0.1-0.3 0.1h-0.1c-0.1-0.1-0.2-0.2-0.2-0.4 0-0.2 0.1-0.3 0.2-0.5 0.1-0.1 0.2-0.2 0.4-0.2 0.3 0 0.4 0.1 0.4 0.4zm-62.8 6.6c0 0.7-0.3 1-0.6 1-0.3 0-0.6-0.3-0.6-1 0-0.7 0.3-1 0.6-1 0.3 0 0.6 0.3 0.6 1zm52-6.2l0.4-0.6v0.1c0 0.1 0 0.3-0.1 0.5q0.1 0 0 0zm64.1-5.1c0.4 0 0.8 0 1.2 0.2l-0.1 3.8c-0.3 0.1-0.6 0.1-0.9 0.1h-0.4c-1.1 0-1.9-1-1.8-2.1v-0.3c0.1-1 1-1.8 2-1.7zm-56.5-1.1c-0.1 0.3-0.4 0.6-0.8 0.6h-2.6c0.1-0.3 0.2-0.6 0.3-0.7 0.1-0.2 0.2-0.4 0.2-0.6 0-0.1 0-0.1 0.1-0.1h2.2c0.2 0 0.4 0.1 0.5 0.2 0.2 0.1 0.2 0.4 0.1 0.6zm-5.4 5.7c0 0.1-0.1 0.2-0.2 0.2h-0.5l0.1-0.4h0.5c0.1 0 0.1 0.1 0.1 0.2z"/><path fill-rule="evenodd" class="a" d="m282.9 13.2c-0.1 0.2-0.1 0.2-0.3 0.3 0.1 0.1 0.1 0.2 0.1 0.3 0 0.1 0 0.2-0.1 0.2v0.2l-0.3 0.2 0.1-0.4c0.1-0.2 0-0.3-0.2-0.3h-0.5c0 0-0.1 0-0.1 0.1 0 0.1-0.1 0.3-0.1 0.4-0.1 0.1-0.1 0.2-0.3 0.1 0-0.1 0.1-0.2 0.1-0.3l0.4-1.1c0 0 0-0.3 0-0.4-0.5 0.2-0.9 0.7-0.9 1.2 0 0.7 0.5 1.2 1.2 1.2 0.7 0 1.2-0.6 1.2-1.2 0-0.2-0.1-0.5-0.3-0.7zm-1.2-0.4q0 0 0.1 0-0.1 0-0.1 0zm0.1 0q0 0 0 0h0.9c-0.2-0.2-0.5-0.3-0.7-0.3-0.1 0-0.2 0.2-0.2 0.3zm-261.7 15.4c-0.5 0-0.8 0.4-0.8 0.7h1.6c0-0.4-0.4-0.7-0.8-0.7zm9.2 0.2c-0.5 0-1 0.4-1 0.9v0.1c0.1 0.5 0.4 0.9 0.9 0.9 0.5 0 1-0.4 1-0.9 0-0.5-0.4-1-0.9-1zm6.3-0.1c-0.5 0-1 0.4-1 0.9-0.1 0.2-0.1 0.2 0 0.1 0 0.5 0.5 0.9 1 0.9q0.7-0.2 0.9-0.9c0-0.5-0.4-1-0.9-1zm-25.5 0c-0.5 0-1 0.4-1 0.9 0 0.1 0 0.2 0.1 0.1 0 0.4 0.4 0.8 0.8 0.8 0.5 0.1 0.9-0.3 1-0.8 0-0.5-0.4-1-0.9-1zm194.1-2.3c-0.2 0.1-0.3 0.2-0.5 0.2v1.5c0.1 0.1 0.3 0.1 0.5 0.1 0.4 0 0.6-0.2 0.6-0.9 0-0.7-0.3-0.9-0.6-0.9zm-165.8 4.6c0 0-0.1 0-0.1-0.1h-0.1l0.1 0.1v0.1h-0.1l-0.1-0.1v0.1h-0.1v-0.1l-0.1 0.1c0.1 0.1 0.2 0.2 0.3 0.2h0.1l0.1-0.1h0.1c0-0.1 0-0.1-0.1-0.2zm218.4-15.4c0.3 0 0.6-0.2 0.8-0.5 0.1-0.2 0.2-0.4 0.1-0.6-0.1-0.3-0.4-0.4-0.6-0.4h-2.2c0 0-0.1 0-0.1 0.1l-0.6 1.4zm-182.1 13.1c-0.5 0-0.9 0.4-1 0.9v0.1c0.1 0.5 0.4 0.9 0.9 0.9 0.5 0 1-0.4 1-0.9 0-0.5-0.4-1-0.9-1zm114.4-2.4c-0.3 0-0.5 0.2-0.5 0.7h1c0-0.5-0.2-0.7-0.5-0.7zm-95.8 4.9q0.1-0.2 0-0.3h-0.2l0.1 0.1h-0.1l0.2 0.2-0.2-0.1-0.1-0.1v-0.1l-0.1-0.1c0 0-0.1 0-0.1 0.1l-0.1 0.1c0 0.1 0.1 0.2 0.3 0.2zm60.5-13.1h2.5l-1.1-4.3c0 0-1.3 4.3-1.4 4.3z"/><path fill-rule="evenodd" class="a" d="m93.1 30.6l-0.1-0.1h0.1zm-13.9-1.6h-1.6c0-0.4 0.4-0.8 0.8-0.8 0.4 0 0.8 0.3 0.8 0.8zm12.4-0.2c0.1 0.3 0.1 0.5 0 0.8 0 0.1-0.1 0.2-0.2 0.3-0.1 0.1-0.2 0.2-0.3 0.2-0.3 0.1-0.5 0.1-0.8 0-0.1 0-0.2-0.1-0.3-0.2-0.1-0.1-0.2-0.2-0.2-0.3-0.1-0.3-0.1-0.5 0-0.8 0-0.1 0.1-0.2 0.2-0.3 0.2-0.2 0.4-0.3 0.7-0.3 0.1 0 0.3 0.1 0.4 0.1 0.2 0.1 0.4 0.3 0.5 0.5zm107.4-1.5h0.4l-0.1 0.6c-0.1 0.1-0.2 0.2-0.4 0.2-0.2 0-0.4-0.1-0.4-0.4 0-0.3 0.2-0.4 0.5-0.4zm181.1-12.1l-0.5 2.3c-0.1 1-1 1.6-1.9 1.6-1.3 0-1.7-0.8-1.4-2 0.4-1.7 1.8-2.2 3.8-1.9zm-7.7 1.9c-0.3 1.1-1.3 1.9-2.4 1.9-1.2 0-1.8-0.7-1.4-1.9 0.2-1.2 1.3-2 2.4-2 1.1 0 1.7 0.8 1.4 2zm140.2-1.2h-2.5c0.1-0.6 0.7-1 1.3-1 0.6 0 1.1 0.4 1.2 1zm-21.6-4h1.6v4.4c0.1 1.7-1.1 3.1-2.8 3.2h-0.4c-1.6 0.1-3-1.1-3.1-2.6v-0.2c-0.1-1.5 1.1-2.8 2.6-2.9h0.4c0.6 0 1.3 0.2 1.7 0.6zm-0.1 4.8c0-0.8-0.7-1.5-1.5-1.5-0.8-0.1-1.4 0.5-1.5 1.3v0.2c0 0.8 0.6 1.5 1.5 1.5 0.8 0 1.5-0.6 1.5-1.5zm-107.4-0.1c0.3-0.9 1.2-1.6 2.3-1.6 0.6 0 1 0.2 1 0.7 0 1.2-2.3 1.1-3.3 0.9zm115.7 0.5h-4.2c0.1 0.7 0.9 1.2 1.7 1.2 0.5 0 0.9-0.1 1.4-0.3l-0.1 1.3c-0.5 0.2-1.1 0.3-1.6 0.3-1.6 0.2-3-1-3.2-2.5v-0.5c0-1.5 1.2-2.8 2.8-2.8h0.2c2.1 0 3.1 1.3 3 3.3zm-1.7-1.1c-0.1-0.6-0.6-1-1.3-1-0.6 0-1.2 0.4-1.3 1zm21.8 0.5c0 0.8-0.6 1.5-1.4 1.5h-0.1c-0.8 0-1.5-0.6-1.5-1.4v-0.1c0-0.8 0.7-1.5 1.5-1.5 0.8 0 1.5 0.7 1.5 1.5zm-178.5-0.8c0.4 0 0.8 0 1.2 0.2l-0.1 3.8c-0.3 0.1-0.6 0.1-0.9 0.1h-0.3c-1.1-0.1-2-1-1.9-2.1v-0.3c0.1-1 1-1.8 2-1.7zm59.7 1.5c-0.2 1.2-1.2 2-2.4 2-1.2 0-1.7-0.7-1.4-2 0.2-1.1 1.2-2 2.4-2 1.2 0 1.7 0.8 1.4 2z"/><path class="b" d="m17.9 27.7h0.1"/><path fill-rule="evenodd" class="c" d="m38.4 30.4c0.1 0.2 0.1 0.3 0.1 0.3v0.1c0-0.1 0-0.1-0.1-0.2 0 0-0.1 0-0.1-0.1h-0.1l0.1 0.1v0.1h-0.1l-0.1-0.1v0.1h-0.1v-0.1c-0.1 0-0.1 0.1-0.1 0.1v-0.2c0 0 0-0.1 0.1-0.1l0.1-0.1h0.2c0 0 0.1 0 0.1 0.1zm-30.6-1.5v1.9l-0.7 0.1v-1.7c0-0.5-0.2-0.8-0.7-0.8h-0.1c-0.4 0-0.6 0.4-0.6 0.8v1.7h-0.7v-1.7c0-0.5-0.3-0.8-0.7-0.8h-0.1c-0.4 0-0.6 0.4-0.6 0.8v1.7h-0.7v-3.1h0.7v0.4c0.2-0.3 0.5-0.5 0.9-0.5 0.4-0.1 0.8 0.2 1 0.5 0.2-0.3 0.7-0.5 1.1-0.5h0.1c0.7 0 1.1 0.6 1.1 1.2zm3.2-1.2h0.7v3h-0.7v-0.4c-0.2 0.3-0.6 0.5-1 0.5-0.9 0-1.6-0.7-1.6-1.6 0-0.9 0.7-1.6 1.6-1.6 0.4 0 0.8 0.2 1 0.5zm0 1.6c0-0.5-0.4-1-0.9-1-0.5 0-1 0.4-1 0.9 0 0.1 0 0.2 0.1 0.1 0 0.4 0.4 0.8 0.8 0.8 0.5 0.1 0.9-0.3 1-0.8zm14.2-0.1c-0.1 0.6 0.4 1.1 0.9 1.1 0.3 0 0.6-0.1 0.8-0.3l0.3 0.5c-0.3 0.3-0.7 0.4-1.1 0.4h-0.1c-0.9 0-1.5-0.7-1.5-1.6 0-0.1 0-0.1-0.1-0.1 0.1-0.9 0.8-1.6 1.7-1.5 0.4 0 0.8 0.1 1.1 0.4l-0.3 0.5c-0.2-0.2-0.5-0.3-0.8-0.3-0.5 0-0.9 0.4-0.9 0.9zm5.6 0.1h0.1v1.5h-0.7v-0.4c-0.2 0.2-0.6 0.4-1 0.4h-0.3c-0.9 0-1.6-0.8-1.5-1.7 0-0.9 0.8-1.6 1.7-1.5 0.4 0 0.8 0.2 1 0.5v-0.4h0.7zm-0.6 0.1c0-0.5-0.4-1-0.9-1-0.5 0-1 0.4-1 0.9v0.1c0.1 0.5 0.4 0.9 0.9 0.9 0.5 0 1-0.4 1-0.9zm3.5-1.7l-0.2 0.6c-0.1-0.1-0.3-0.1-0.4-0.1-0.5 0-0.7 0.3-0.7 0.8v1.8h-0.7v-3.1h0.7v0.4c0.1-0.3 0.5-0.5 0.8-0.5 0.1 0 0.3 0.1 0.5 0.1zm-20.6 1c0 0.2 0.2 0.3 0.5 0.3h0.3c0.7 0.1 1.1 0.3 1.1 0.9 0 0.6-0.5 1-1.4 1-0.4 0-0.9-0.1-1.3-0.4l0.3-0.5c0.3 0.2 0.6 0.3 1 0.3 0.5 0 0.7-0.3 0.7-0.4 0-0.1-0.1-0.2-0.5-0.3h-0.3c-0.7-0.1-1.1-0.3-1.1-0.9 0-0.6 0.5-1 1.3-1 0.5 0 0.9 0.1 1.3 0.3l-0.3 0.6c-0.3-0.2-0.6-0.3-1-0.3-0.4 0-0.6 0.2-0.6 0.4zm24 0.5h0.1v1.5h-0.7v-0.4c-0.2 0.2-0.6 0.4-1 0.4h-0.3c-0.9 0-1.6-0.8-1.5-1.7 0-0.9 0.8-1.6 1.7-1.5 0.4 0 0.8 0.2 1 0.5v-1.6h0.7zm-0.6 0.1c0-0.5-0.4-1-0.9-1-0.5 0-1 0.4-1 0.9-0.1 0.2-0.1 0.2 0 0.1 0 0.5 0.5 0.9 1 0.9q0.8-0.1 0.9-0.9zm1.4 1.4c0.1 0.1 0.2 0.2 0.3 0.2h-0.2c-0.1-0.1-0.1-0.1-0.1-0.2zm0.6 0.1c0 0-0.1 0.1-0.2 0.1 0.1-0.1 0.2-0.1 0.2-0.1zm-20.6-0.8l0.2 0.6c-0.2 0.1-0.5 0.2-0.8 0.2-0.8 0-1.1-0.4-1.1-1.1v-1.4h-0.6v-0.6h0.6v-0.9h0.7v0.9h1v0.6h-1.1v1.4c0 0.3 0.2 0.5 0.5 0.5 0.2 0 0.4-0.1 0.6-0.2zm3.8-0.9v0.3h-2.3c0 0.5 0.4 0.8 0.9 0.8q0.5 0 0.9-0.3l0.3 0.5c-0.4 0.3-0.8 0.4-1.3 0.4h-0.3c-0.9 0-1.6-0.8-1.5-1.7 0-0.9 0.8-1.6 1.7-1.5 0 0.1 0.1 0.1 0.3-0.1 0.8 0.1 1.4 0.8 1.3 1.6zm-0.8-0.2c0-0.4-0.4-0.7-0.8-0.7-0.5 0-0.8 0.4-0.8 0.7zm3.3-1.1l-0.2 0.6c-0.1-0.1-0.3-0.1-0.4-0.1-0.4 0-0.6 0.3-0.6 0.8v1.7h-0.8v-3.1h0.7v0.4c0.1-0.3 0.5-0.5 0.8-0.5 0.3 0 0.4 0 0.5 0.2zm14 3.1h0.1z"/><path class="d" d="m22.1 6.4c0-0.1-0.1-0.1-0.1-0.2-0.6-0.7-1.3-1.4-2-2h-0.2l0.1 0.1c-2.8 2.2-4.5 5.5-4.5 9.1 0.1 3.5 1.7 6.8 4.4 9.1h0.2c5-3.9 6-11.1 2.1-16.1z"/><path class="e" d="m15.4 13.4c0-3.6 1.7-6.9 4.5-9.1l-0.1-0.1c-5.1-3.9-12.3-3-16.4 2.1-4 5-3.1 12.2 1.8 16.2 0.1 0 0.1 0.1 0.2 0.1 4.3 3.3 10.2 3.3 14.5 0l-0.1-0.1c-2.7-2.3-4.3-5.6-4.4-9.1z"/><path class="f" d="m20 4.2c0.7 0.6 1.4 1.3 2 2 0 0.1 0.1 0.1 0.1 0.2 3.9 5 2.9 12.2-2.1 16.1 2 1.6 4.6 2.5 7.2 2.5 6.4 0 11.7-5.2 11.7-11.6 0-2.6-0.9-5.2-2.4-7.2-4.1-5.1-11.4-6-16.5-2z"/><path class="g" d="m37.8 20.3v0.8"/><path class="g" d="m38.6 20.3v0.8"/><path class="e" d="m38 20.1h-0.4v0.2h0.4zm0.4 0.7l-0.1-0.7h-0.1v1h0.1v-0.8l0.1 0.6h0.1l0.1-0.6v-0.2h-0.1zm175.1-8.6v-0.9c-0.1-0.5-0.2-1.1-0.3-1.6-1.5-4.9-6.6-7.7-11.5-6.2-3 0.9-5.3 3.2-6.2 6.2 0.8 2.6 2.7 4.8 5.2 5.9-0.9-0.9-1.3-2.1-1.4-3.4 0-2.8 2.3-5 5-5 2.7 0 5 2.3 5 5 0 1.3-0.5 2.5-1.3 3.4-1 1-2.3 1.6-3.7 1.6-3.9 0-7.5-2.3-9.2-5.8-0.2-0.5-0.4-1-0.6-1.6-0.2-0.8-0.3-1.6-0.3-2.5 0-1.2 0.2-2.3 0.6-3.4l0.1-0.1v-0.1c0-0.3-0.2-0.5-0.5-0.5h-10.2c-0.4 0-0.7 0.3-0.7 0.6 0.4 9.5 7.9 17.2 17.5 17.8h1.3c1.3 0 2.7-0.2 4-0.5 4.2-0.9 7.2-4.6 7.2-8.9z"/><path class="e" d="m217.5 3.1h-3.2c-0.3 0-0.5 0.2-0.5 0.5v0.2c0.4 1.1 0.6 2.3 0.6 3.5 0 0.9-0.1 1.7-0.3 2.5 0.2 0.8 0.4 1.7 0.4 2.5 0 2.8-1.2 5.5-3.4 7.4 0.9-0.5 1.8-1.1 2.6-1.8 4.1-3.4 5.8-9 4.4-14.2-0.1-0.3-0.4-0.5-0.6-0.6z"/><path fill-rule="evenodd" class="c" d="m186.1 24h-0.8l-0.6-0.6v-0.3h0.7l0.3 0.3 0.4-0.3h0.6v0.3zm-0.3 0.2c0.5 0 0.9 0.1 1.4 0.3v0.9h-0.5q-0.3-0.3-0.9-0.3c-0.7 0-1.1 0.5-1.1 1.4 0 0.9 0.4 1.4 1 1.4 0.4 0 0.7-0.1 1-0.4h0.4v0.8c-0.4 0.3-1 0.5-1.5 0.4-1.1 0.1-2.1-0.7-2.2-1.9 0.1-0.1 0.1-0.2 0.1-0.3-0.1-1.2 0.8-2.2 2-2.3zm5 2.8v0.3h-2.2c0.1 0.5 0.3 0.6 0.8 0.6 0.3 0 0.6-0.1 0.9-0.2h0.4v0.7c-0.4 0.2-0.9 0.3-1.4 0.3-0.9 0.1-1.7-0.5-1.8-1.3v-0.4c-0.1-0.9 0.6-1.7 1.5-1.7h0.2c1.1 0 1.6 0.5 1.6 1.7zm-1.2-0.4c0-0.5-0.2-0.7-0.5-0.7-0.3 0-0.5 0.2-0.5 0.7zm4.2 0.9c0 0.7-0.5 1.1-1.5 1.1-0.5 0.1-0.9 0-1.3-0.2v-0.7h0.4c0.2 0.2 0.5 0.3 0.8 0.2 0.3 0 0.5-0.1 0.5-0.2 0-0.2-0.1-0.2-0.6-0.3-0.7-0.1-1.1-0.3-1.1-1 0-0.7 0.6-1.1 1.4-1.1 0.4 0 0.8 0.1 1.1 0.2v0.7h-0.4c-0.2-0.1-0.5-0.2-0.7-0.2-0.3 0-0.4 0.1-0.4 0.2 0 0.1 0.1 0.2 0.6 0.3 0.8 0.1 1.2 0.3 1.2 1zm2.6-0.8l1.1 1.8v0.3h-1.1l-0.8-1.3-0.3 0.3v1h-1.2v-4.5h0.7c0.4 0 0.4 0.1 0.4 0.6v1.7l1.1-1.2h1v0.3z"/><path fill-rule="evenodd" class="c" d="m200.4 26.5v2.2h-0.4c-0.2 0-0.4-0.1-0.5-0.4-0.3 0.3-0.6 0.4-1 0.4-0.6 0-1-0.4-1.1-0.9v-0.1c0-0.7 0.5-1 1.3-1 0.2 0 0.4 0 0.6 0.1v-0.2c0-0.3-0.1-0.4-0.6-0.4-0.3 0-0.6 0.1-0.8 0.2h-0.4v-0.8c0.4-0.2 0.9-0.3 1.4-0.3 1 0 1.5 0.3 1.5 1.2zm-1 0.8h-0.4c-0.3 0-0.5 0.1-0.5 0.4 0 0.3 0.2 0.4 0.4 0.4 0.2 0 0.3-0.1 0.4-0.2zm0.1-2.2h-0.7v-0.2l0.2-0.7h1.1v0.3zm6.5 1.8c0 1.2-0.7 1.7-1.5 1.7-0.2 0-0.5 0-0.7-0.2v1.3h-1.2v-4.4h0.8c0.2 0 0.3 0.1 0.3 0.4 0.3-0.3 0.6-0.4 1-0.4 0.6 0 1.3 0.4 1.3 1.6zm-1.2 0c0-0.7-0.3-0.9-0.6-0.9-0.2 0.1-0.3 0.2-0.5 0.2v1.5c0.1 0.1 0.3 0.1 0.5 0.1 0.4 0 0.6-0.2 0.6-0.9zm5.1 0.1c0 1-0.8 1.8-1.8 1.8-1 0-1.8-0.8-1.8-1.8 0-1 0.8-1.8 1.8-1.8 1 0 1.8 0.8 1.8 1.8zm-1.2 0c0-0.7-0.3-1-0.6-1-0.3 0-0.6 0.3-0.6 1 0 0.7 0.3 1 0.6 1 0.3 0 0.6-0.3 0.6-1zm4.1 0.5c0 0.7-0.5 1.1-1.5 1.1-0.4 0.1-0.8 0-1.2-0.2v-0.7h0.4c0.2 0.2 0.5 0.3 0.8 0.2 0.3 0 0.5-0.1 0.5-0.2 0-0.2-0.1-0.2-0.6-0.3-0.7-0.1-1.1-0.3-1.1-1 0-0.7 0.6-1.1 1.4-1.1 0.4 0 0.8 0.1 1.1 0.2v0.7h-0.4c-0.2-0.1-0.5-0.2-0.8-0.2-0.3 0-0.4 0.1-0.4 0.2 0 0.1 0.1 0.2 0.6 0.3 0.8 0.1 1.2 0.3 1.2 1zm-2.3-3.3h0.6l0.4 0.3 0.4-0.3h0.6v0.2l-0.6 0.7h-0.8l-0.6-0.7zm4 1.1h0.6v0.7h-0.6v1.5c0 0.3 0.1 0.4 0.4 0.4h0.2v0.7c-0.2 0.1-0.4 0.1-0.7 0.1-0.7 0-1.1-0.2-1.1-1v-1.7h-0.3v-0.7h0.4v-0.9h1.1zm3.9 1.2v2.2h-0.6c-0.1 0-0.3-0.1-0.3-0.4-0.3 0.3-0.6 0.4-1 0.4-0.6 0-1-0.4-1.1-0.9v-0.1c0-0.7 0.5-1 1.3-1 0.2 0 0.4 0 0.6 0.1v-0.2c0-0.3-0.1-0.4-0.6-0.4-0.3 0-0.6 0.1-0.8 0.2h-0.4v-0.8c0.4-0.2 0.9-0.3 1.4-0.3 1 0 1.5 0.3 1.5 1.2zm-1 0.8h-0.4c-0.3 0-0.5 0.1-0.5 0.4 0 0.2 0.1 0.4 0.4 0.4h0.1c0.1 0 0.3-0.1 0.4-0.2z"/><path class="b" d="m93 30.5l0.1 0.1"/><path fill-rule="evenodd" class="c" d="m88.4 27.6c0.2 0 0.3 0 0.5 0.1l-0.2 0.6c-0.1-0.1-0.3-0.1-0.4-0.1-0.4 0-0.7 0.3-0.7 0.8v1.7h-0.7v-3.1h0.7v0.4c0.1-0.2 0.5-0.4 0.8-0.4zm3.9 0.9c0.2 0.4 0.2 0.9 0 1.3-0.1 0.2-0.2 0.4-0.4 0.5-0.2 0.2-0.3 0.3-0.5 0.3-0.4 0.2-0.9 0.2-1.3 0-0.2-0.1-0.4-0.2-0.5-0.3-0.2-0.1-0.3-0.3-0.3-0.5-0.2-0.4-0.2-0.9 0-1.3 0.1-0.2 0.2-0.4 0.3-0.5 0.2-0.1 0.3-0.3 0.5-0.3 0.1-0.1 0.4-0.1 0.6-0.1 0.2 0 0.4 0 0.7 0.1 0.2 0.1 0.4 0.2 0.5 0.3 0.2 0.1 0.3 0.3 0.4 0.5zm-0.7 0.3c-0.1-0.2-0.3-0.4-0.5-0.5-0.1 0-0.3-0.1-0.4-0.1-0.3 0-0.5 0.1-0.7 0.3-0.1 0.1-0.2 0.2-0.2 0.3-0.1 0.3-0.1 0.5 0 0.8 0 0.1 0.1 0.2 0.2 0.3 0.1 0.1 0.2 0.2 0.3 0.2 0.3 0.1 0.5 0.1 0.8 0 0.1 0 0.2-0.1 0.3-0.2 0.1-0.1 0.2-0.2 0.2-0.3 0.1-0.3 0.1-0.5 0-0.8zm-15.4 0.4h0.1v1.6h-0.7v-0.4c-0.2 0.2-0.6 0.4-1 0.4h-0.3c-0.9 0-1.6-0.8-1.5-1.7 0-0.9 0.8-1.6 1.7-1.5 0.4 0 0.8 0.2 1 0.5v-0.4h0.7zm-0.6 0.1c0-0.5-0.4-1-0.9-1-0.5 0-0.9 0.4-1 0.9v0.1c0.1 0.5 0.4 0.9 0.9 0.9 0.5 0 1-0.4 1-0.9zm4.3-0.1c-0.1 0.1-0.1 0.2 0 0.2h-2.3c0 0.5 0.4 0.8 0.9 0.8q0.4 0 0.9-0.3l0.3 0.5c-0.4 0.3-0.8 0.4-1.3 0.4-0.9 0-1.6-0.7-1.6-1.6 0-0.9 0.7-1.6 1.6-1.6h0.2c0.8 0.1 1.4 0.8 1.3 1.6zm-0.7-0.2c0-0.5-0.4-0.8-0.8-0.8-0.4 0-0.8 0.4-0.8 0.8zm-6.8-0.1v1.9l-0.6 0.1v-1.7c0-0.5-0.2-0.8-0.7-0.8h-0.1c-0.4 0-0.7 0.4-0.6 0.8v1.7h-0.7v-1.7c0-0.5-0.3-0.8-0.7-0.8h-0.2c-0.4 0-0.7 0.4-0.6 0.8v1.7h-0.7v-3.1h0.7v0.4c0.2-0.3 0.5-0.5 0.9-0.5 0.4-0.1 0.8 0.2 1 0.5 0.2-0.3 0.7-0.5 1.2-0.5 0.7 0 1.1 0.6 1.1 1.2zm10.6 0.9c0 0.5-0.5 1-1.4 1-0.5 0-0.9-0.1-1.3-0.4l0.3-0.5c0.3 0.2 0.6 0.3 1 0.3 0.5 0 0.7-0.1 0.7-0.4q0-0.3-0.6-0.3h-0.3c-0.7-0.1-1.1-0.4-1.1-0.9 0-0.5 0.5-1 1.3-1 0.4 0 0.9 0.1 1.3 0.3l-0.2 0.6c-0.3-0.2-0.7-0.3-1-0.3-0.4 0-0.6 0.1-0.6 0.4 0 0.3 0.2 0.3 0.5 0.3h0.3c0.7 0.1 1.1 0.4 1.1 0.9zm2.9 0.2l0.2 0.6c-0.3 0.2-0.5 0.2-0.8 0.2-0.8 0-1.1-0.4-1.1-1.1v-1.4h-0.6v-0.6h0.6v-0.9h0.7v0.9h1.1v0.6h-1.1v1.4c0 0.3 0.1 0.5 0.4 0.5 0.2 0 0.4-0.1 0.6-0.2zm7.5 0.5v0.2c0 0 0 0.1-0.1 0.1l-0.1 0.1h-0.1l0.2-0.1q0.1-0.1 0-0.3h-0.3c0 0-0.1 0-0.1 0.1-0.1 0-0.1 0.1-0.1 0.1v-0.2c0 0 0-0.1 0.1-0.1l0.1-0.1h0.2zm-0.4 0.2v-0.1z"/><path class="c" d="m92.8 30.7c0 0.1 0 0.1 0.1 0.2h0.2c-0.1 0-0.2-0.1-0.3-0.2zm0.2-0.1l0.2 0.1-0.2-0.1h0.2l-0.1-0.1z"/><path class="d" d="m82 6.4c0-0.1-0.1-0.1-0.1-0.2-0.6-0.7-1.3-1.4-2-2-0.7 0.6-1.4 1.4-2.1 2.2-3.9 5-2.9 12.2 2.1 16.1 5-3.9 6-11.1 2.1-16.1z"/><path class="f" d="m77.8 6.4c0.7-0.8 1.4-1.6 2.1-2.2-5.1-4-12.4-3.1-16.5 2-4 5-3.1 12.2 1.8 16.2 0.1 0 0.1 0.1 0.2 0.1 4.3 3.3 10.2 3.3 14.5 0-5-3.9-6-11.1-2.1-16.1z"/><path class="g" d="m97.8 20.3v0.8"/><path fill-rule="evenodd" class="e" d="m96.4 6.1c1.6 2.1 2.5 4.6 2.5 7.3-0.1 6.5-5.4 11.7-11.9 11.6-2.6 0-5.1-0.9-7.1-2.5 5-3.9 6-11.1 2.1-16.1 0-0.1-0.1-0.1-0.1-0.2-0.6-0.7-1.3-1.4-2-2 5.1-4 12.5-3.1 16.5 1.9zm2.1 14h0.1v1h-0.2v-0.3zm-0.2 0l0.1 0.5-0.1 0.4h-0.1l-0.1-0.6v0.7h-0.1v-0.8h-0.4v-0.2zm171.5-4.4c-0.7 0.3-1.4 0.5-2.1 0.5h-3.1c-0.1 0-0.1 0-0.1 0.1l-0.6 2c0 0.1 0 0.1-0.1 0.1l-3.1 0.1c0.1-0.2 0.1-0.4 0.2-0.6l0.9-3c0.2-0.8 0.4-1.5 0.6-2.3 0-0.1 0.1-0.1 0.1-0.1h6.2c0.5 0 1.1 0.1 1.5 0.3 0.3 0.1 0.6 0.4 0.8 0.7 0.3 0.5 0.2 1-0.1 1.4-0.3 0.4-0.7 0.6-1.1 0.8zm-1.6-1.7c-0.1-0.1-0.3-0.2-0.5-0.2h-2.2c-0.1 0-0.1 0-0.1 0.1 0 0.2-0.1 0.4-0.2 0.6-0.1 0.1-0.2 0.4-0.3 0.7h2.6c0.4 0 0.7-0.3 0.8-0.6 0.1-0.2 0.1-0.5-0.1-0.6zm-18.1 4.4l0.3-1.1 1.4-4.7c0-0.1 0.1-0.1 0.1-0.1h6.2q0.8 0 1.5 0.3c0.3 0.1 0.6 0.3 0.8 0.6 0.3 0.4 0.3 1 0 1.5-0.3 0.4-0.7 0.7-1.1 0.9-0.7 0.3-1.4 0.5-2.2 0.5h-3.1c-0.1 0-0.1 0-0.2 0.1-0.2 0.6-0.4 1.3-0.6 1.9 0 0.1-0.1 0.1-0.1 0.1zm4.1-3.2h2.6c0.3 0 0.6-0.2 0.8-0.5 0.1-0.2 0.2-0.4 0.1-0.6-0.1-0.3-0.4-0.4-0.6-0.4h-2.2c0 0-0.1 0-0.1 0.1zm20.8 1.8h5l-0.1 0.5c-0.1 0.3-0.2 0.6-0.2 0.9 0 0.1 0 0.1-0.1 0.1h-8.1c0-0.2 0.1-0.3 0.1-0.5l1-3.5 0.5-1.9c0 0 0-0.1 0.1-0.1h3.1c-0.5 1.5-0.9 3-1.3 4.5zm-26.7 1.5h-7.1c0.1-0.2 0.1-0.3 0.2-0.4l0.3-1.2c0-0.1 0.1-0.1 0.1-0.1h7.1l-0.1 0.2-0.4 1.4c0 0.1-0.1 0.1-0.1 0.1zm0.7-2.2h-7.1c0.1-0.2 0.1-0.5 0.2-0.7 0.1-0.2 0.1-0.4 0.2-0.6 0-0.1 0.1-0.1 0.1-0.1h7.1c0 0.1-0.1 0.2-0.1 0.4l-0.3 0.9c0 0.1-0.1 0.1-0.1 0.1zm0.6-1.8l-7.2 0.1 0.3-1 7.2-0.1c-0.1 0.3-0.2 0.6-0.3 1zm-6.8-1.5c0-0.1 0.1-0.3 0.1-0.4h7.2c0 0.1-0.1 0.3-0.1 0.4zm20.4 7v0.2c0 0.2 0 0.3-0.2 0.4 0.1 0.1 0.1 0.2 0.1 0.3l-0.1 0.2v0.2h-0.4v-0.2c0-0.1 0-0.2 0.1-0.3 0.1-0.1 0-0.1-0.1-0.1h-0.4l-0.1 0.1c0 0.2-0.1 0.4-0.2 0.5h-0.3c0-0.1 0.1-0.3 0.1-0.4 0.1-0.4 0.2-0.7 0.3-1.1 0-0.1 0-0.1 0.1-0.1h0.8q0.3 0 0.3 0.3zm-0.3 0.3c0-0.1 0-0.2-0.1-0.2h-0.5l-0.1 0.4h0.5c0.1 0 0.2-0.1 0.2-0.2zm10.3-0.5c0.1 0.1 0.2 0.2 0.2 0.4 0 0.1 0 0.1-0.1 0.1h-0.1c-0.1 0-0.1 0-0.2-0.1 0-0.1-0.1-0.2-0.3-0.2-0.2 0-0.4 0.2-0.5 0.4-0.1 0.1-0.1 0.3-0.1 0.4 0 0.2 0.1 0.3 0.3 0.4 0.2 0 0.4-0.1 0.5-0.4h-0.4l0.1-0.2h0.7v0.1l-0.2 0.6c0.1 0.1 0.1 0.2-0.1 0.1v-0.2l-0.1 0.1c-0.2 0.2-0.4 0.2-0.7 0.1-0.2 0-0.3-0.2-0.4-0.4v-0.2c0 0.2-0.2 0.5-0.4 0.6-0.2 0.1-0.4 0.2-0.7 0.1-0.3 0-0.5-0.3-0.5-0.6 0-0.5 0.4-1 0.9-1.1h0.3c0.3 0 0.5 0.2 0.5 0.5v0.3c0.1-0.4 0.3-0.7 0.7-0.8q0.3-0.2 0.6 0zm-1.7 0.6c0-0.3-0.1-0.4-0.4-0.4-0.2 0-0.3 0.1-0.4 0.2-0.1 0.2-0.2 0.3-0.2 0.5 0 0.2 0.1 0.3 0.2 0.4h0.1c0.1 0 0.2 0 0.3-0.1 0.3-0.1 0.4-0.3 0.4-0.6zm-28-0.2c0 0.2-0.1 0.3-0.2 0.4l-0.1 0.1c0.1 0.1 0.1 0.3 0.1 0.4v0.4h-0.4v-0.4c0-0.1 0-0.2-0.2-0.2h-0.3c0 0-0.1 0-0.1 0.1 0 0.2-0.1 0.3-0.1 0.5 0 0.2-0.1 0.1-0.1 0.1l-0.3-0.2c0.1-0.4 0.2-0.7 0.3-1 0-0.2 0.1-0.3 0.1-0.5 0-0.2 0-0.1 0.1-0.1h0.8c0.3 0 0.4 0.1 0.4 0.4zm-0.4 0.1c0-0.1 0-0.2-0.1-0.2h-0.5l-0.1 0.4h0.5c0.1 0 0.2-0.1 0.2-0.2zm2.1 0c0 0.6-0.4 1-0.9 1.1-0.3 0.1-0.6-0.1-0.7-0.3v-0.5c0.1-0.4 0.4-0.7 0.8-0.8h0.4c0.2 0 0.4 0.3 0.4 0.5zm-0.4 0.1c0-0.2-0.1-0.3-0.2-0.3h-0.1c-0.1 0-0.2 0.1-0.3 0.1-0.2 0.1-0.3 0.4-0.3 0.6 0 0.3 0.1 0.4 0.3 0.4 0.1 0 0.3-0.1 0.4-0.2 0.2-0.2 0.3-0.4 0.2-0.6zm8.2-0.1c0 0.5-0.3 0.9-0.8 1.1q-0.3 0.2-0.6 0c-0.2-0.1-0.3-0.2-0.3-0.4v-0.3c0 0.2-0.1 0.4-0.2 0.7 0 0.1-0.1 0.1-0.1 0.1h-0.3v-0.1c0.1-0.4 0.2-0.8 0.4-1.2 0-0.1 0.1-0.2 0.1-0.3 0 0 0-0.1 0.1-0.1h0.3c0 0.1 0 0.2-0.1 0.3 0 0.2-0.1 0.3-0.1 0.5 0.1-0.3 0.3-0.7 0.7-0.8h0.4c0.4 0 0.5 0.2 0.5 0.5zm-0.3 0c0-0.1-0.1-0.2-0.2-0.2-0.1 0-0.3 0-0.4 0.1-0.3 0.1-0.4 0.4-0.4 0.6 0 0.2 0.1 0.3 0.3 0.4h0.2c0.4-0.2 0.6-0.5 0.5-0.9zm-154.3 0.3v0.2-0.4zm156.3-0.8v0.1z"/><path class="g" d="m270.2 20.9"/><path fill-rule="evenodd" class="e" d="m247 20v0.4h0.8c0 0.1 0 0.2-0.1 0.2h-0.7c-0.1 0-0.1 0-0.1 0.1 0 0.1-0.1 0.2-0.1 0.3h0.9c0 0.1-0.1 0.2-0.1 0.3h-1.3c0.1-0.2 0.1-0.3 0.1-0.5l0.3-0.8h-0.9c-0.1 0-0.1 0-0.1 0.1 0 0.1 0 0.2-0.1 0.3h0.7c0 0.1 0 0.2-0.1 0.2h-0.6c-0.1 0-0.1 0-0.1 0.1 0 0.1-0.1 0.3-0.1 0.5 0 0.2-0.1 0.1-0.1 0.1l-0.2 0.1 0.2-0.7c0.1-0.3 0.1-0.5 0.2-0.8 0 0 0-0.1 0.1-0.1h1.1c0-0.1 0.1-0.1 0.1-0.1h1.2c0 0.1 0 0.2-0.1 0.2h-0.8c-0.1 0-0.1 0-0.1 0.1zm18.2 0.7c0.1 0.2 0 0.3 0 0.4h0.9c0 0.1-0.1 0.2-0.1 0.3h-1.2c0-0.2 0.1-0.3 0.1-0.5l0.3-1c0 0 0-0.1 0.1-0.1h1.1c0 0.1 0 0.2-0.1 0.2h-0.8c-0.1 0-0.1 0-0.1 0.1 0 0.1 0 0.2-0.1 0.3h0.8c0 0.1 0 0.2-0.1 0.2h-0.7c-0.1 0-0.1 0-0.1 0.1zm-16.6 0.8h-0.3c-0.2 0-0.4-0.2-0.4-0.4v-0.1h0.3q0 0.3 0.3 0.3c0.1 0 0.2 0 0.3-0.1 0.1-0.1 0.1-0.2-0.1-0.3l-0.4-0.1c-0.2 0-0.3-0.2-0.2-0.4v-0.1c0.1-0.3 0.3-0.4 0.6-0.5h0.4c0.2 0 0.3 0.2 0.2 0.4 0 0 0 0.1-0.1 0.1h-0.1c0-0.2-0.1-0.2-0.3-0.2-0.1 0-0.2 0-0.3 0.1-0.1 0.1-0.1 0.2 0.1 0.2l0.4 0.1c0.2 0 0.3 0.2 0.3 0.4-0.1 0.4-0.4 0.6-0.7 0.6zm2-0.3c-0.1 0.2-0.4 0.4-0.7 0.4-0.1 0-0.3 0-0.4-0.1-0.2-0.1-0.2-0.2-0.2-0.4 0 0 0-0.1 0.1-0.1h0.2c0 0.1 0 0.2 0.2 0.2 0.2 0 0.4 0 0.5-0.1 0.1 0 0.1-0.1 0-0.2 0 0-0.1 0-0.1-0.1l-0.4-0.1c-0.4-0.1-0.4-0.4-0.2-0.7 0.2-0.3 0.6-0.3 0.9-0.2 0.2 0.1 0.3 0.2 0.2 0.4 0 0 0 0.1-0.1 0.1h-0.1c0-0.2-0.1-0.2-0.3-0.2-0.1 0-0.2 0.1-0.3 0.2-0.1 0.1 0 0.2 0.1 0.2l0.4 0.1c0.3 0.1 0.4 0.2 0.2 0.6zm5.2-1.2c0 0.3 0.1 0.9 0.1 1.4h-0.4v-0.3c0-0.1 0-0.1-0.1-0.1h-0.6v0.1c-0.1 0.2-0.3 0.2-0.5 0.2v0.1c0 0.1 0 0.1-0.1 0.1-0.1 0-0.2 0-0.3-0.2-0.1-0.2-0.1-0.5-0.2-0.8v-0.1c-0.1 0.1-0.1 0.3-0.1 0.5 0 0.2-0.1 0.4-0.2 0.6-0.1 0.2 0 0.1-0.1 0.1h-0.3c0.1-0.2 0.1-0.4 0.2-0.6l0.3-0.9c0 0 0-0.1 0.1-0.1 0.3 0 0.3 0 0.3 0.2 0 0.2 0.1 0.5 0.2 0.8v0.1l0.1-0.5c0.1-0.2 0.1-0.4 0.2-0.6 0.1-0.2 0-0.1 0.1-0.1h0.2l-0.1 0.4-0.3 0.9 0.2-0.2 0.8-1.2c0-0.1 0.1-0.1 0.2-0.1 0.3 0 0.3 0 0.3 0.3zm-0.3 0.2l-0.4 0.6h0.4zm5.8-0.4c0.1 0.5 0.2 1 0.2 1.6h-0.3c-0.1 0-0.1 0-0.1-0.1v-0.2h-0.7v0.1c-0.1 0.2-0.3 0.2-0.5 0.2 0.1-0.2 0.2-0.3 0.3-0.5 0.2-0.3 0.5-0.7 0.8-1.1zm-0.2 0.5l-0.4 0.5h0.3c0.1 0 0.1 0 0.1-0.1 0 0 0-0.4 0-0.4zm-1.6 0.5h-0.3c0 0-0.1 0-0.1 0.1 0 0.1-0.1 0.3-0.1 0.4 0 0.1 0 0.1-0.1 0.1h-0.2l0.1-0.4c0.1-0.4 0.2-0.7 0.3-1.1 0-0.1 0.1-0.1 0.1-0.1h0.6c0.3 0 0.5 0.2 0.4 0.5-0.1 0.3-0.4 0.6-0.7 0.5zm0.3-0.4c0-0.1 0-0.2-0.1-0.2h-0.4l-0.1 0.4h0.3c0.2 0 0.3-0.1 0.3-0.2zm-18.5 0.4h-0.2c-0.1 0-0.1 0-0.1 0.1l-0.1 0.4c0 0.1 0 0.1-0.1 0.1h-0.4l0.2-0.7c0.1-0.3 0.2-0.5 0.2-0.8 0-0.1 0.1-0.1 0.1-0.1h0.8q0.3 0 0.3 0.3c0 0.5-0.4 0.8-0.7 0.7zm0.3-0.5c0-0.1-0.1-0.2-0.1-0.2h-0.4c0 0-0.1 0.3-0.1 0.5h0.3q0.3 0 0.3-0.3zm37.4 0c0 0.1 0 0.1-0.1 0.1h-0.2c-0.1-0.3-0.4-0.4-0.6-0.2-0.2 0.2-0.3 0.5-0.3 0.8 0 0.2 0.2 0.3 0.4 0.2 0.1 0 0.2-0.1 0.3-0.2 0-0.1 0.1-0.1 0.1-0.1h0.2c-0.2 0.4-0.6 0.6-1.1 0.6-0.2-0.1-0.3-0.2-0.3-0.4 0-0.5 0.2-1 0.6-1.2 0.2-0.1 0.4-0.1 0.6-0.1 0.2 0 0.4 0.2 0.4 0.5zm-14.4 0.6h0.1c-0.2 0.4-0.6 0.7-1.1 0.6-0.2-0.1-0.3-0.2-0.3-0.4 0-0.5 0.3-1 0.7-1.2q0.3-0.2 0.6 0c0.2 0.1 0.3 0.2 0.3 0.4 0 0.1 0 0.1-0.1 0.1h-0.2c0-0.1 0-0.2-0.2-0.3-0.1 0-0.3 0-0.4 0.1-0.2 0.2-0.3 0.5-0.3 0.8 0 0.2 0.2 0.3 0.4 0.2 0.1 0 0.2-0.1 0.3-0.2 0-0.1 0.1-0.1 0.2-0.1zm18.8-7.2c0 0.8-0.6 1.4-1.3 1.4-0.8 0-1.4-0.6-1.4-1.3 0-0.8 0.6-1.4 1.3-1.4 0.7 0 1.4 0.6 1.4 1.3zm-0.2 0c0-0.3-0.1-0.5-0.3-0.7v0.2c-0.1 0.2-0.1 0.2-0.3 0.3 0.1 0.1 0.1 0.2 0.1 0.3 0 0.1 0 0.2-0.1 0.2v0.2l-0.3 0.2 0.1-0.4c0.1-0.2 0-0.3-0.2-0.3h-0.5c0 0-0.1 0-0.1 0.1 0 0.1-0.1 0.3-0.1 0.4-0.1 0.1-0.1 0.2-0.3 0.1 0-0.1 0.1-0.2 0.1-0.3l0.4-1.1c0 0 0-0.3 0-0.4-0.5 0.2-0.9 0.7-0.9 1.2 0 0.7 0.5 1.2 1.2 1.2 0.7 0 1.2-0.6 1.2-1.2zm-1.4-0.9h0.9c-0.2-0.2-0.4-0.3-0.7-0.3-0.1 0-0.2 0.2-0.2 0.3q0 0 0 0zm0 0q-0.1 0-0.1 0 0 0 0.1 0zm0.6 0.3h-0.6c0 0-0.1 0.3-0.1 0.5h0.6q0.3 0 0.3-0.3c0-0.1 0-0.2-0.2-0.2zm-5.8 6.9c-0.1 0-0.1 0-0.1 0.1-0.1 0.4-0.2 0.8-0.3 1.1 0 0.1-0.1 0.1-0.2 0.1h-0.2c0.2-0.4 0.3-0.8 0.4-1.2h-0.5v0.1l-0.1 0.1h-0.4c0-0.1 0-0.2-0.1-0.2-0.1 0-0.3 0-0.4 0.1-0.1 0.1-0.1 0.2 0.1 0.2l0.4 0.1c0.2 0 0.3 0.2 0.3 0.4v0.1c-0.1 0.3-0.4 0.5-0.7 0.5h-0.4c-0.2 0-0.3-0.2-0.3-0.4 0 0 0-0.1 0.1-0.1h0.3c0 0.1 0 0.2 0.1 0.2h0.1c0.2 0 0.3 0 0.5-0.1 0.1-0.1 0-0.2-0.1-0.2-0.1 0-0.3-0.1-0.4-0.1-0.1 0-0.1 0-0.2-0.1-0.1 0-0.2-0.1-0.1-0.3 0-0.2 0.2-0.4 0.4-0.5 0.2-0.1 0.4-0.1 0.7-0.1 0.1 0 0.2 0.1 0.2 0.2l0.1-0.1c0 0 0-0.1 0.1-0.1h1.2c0 0.1 0 0.2-0.1 0.2z"/><path class="g" d="m267.3 21.3"/><path class="e" d="m266.9 19.7h-0.2c-0.1 0-0.1 0-0.1 0.1-0.1 0.4-0.2 0.7-0.3 1.1 0 0.1-0.1 0.2-0.1 0.4h1.1c0.1 0 0.1-0.1 0.1-0.2h-0.8c0.1-0.5 0.3-0.9 0.3-1.4zm-10 0.1l-0.3-0.2c-0.1 0-0.1 0-0.1 0.1-0.1 0.3-0.2 0.7-0.3 0.9-0.1 0.3-0.1 0.5-0.2 0.7h1.2c0.1 0 0.1-0.1 0.1-0.2h-0.8c0.2-0.4 0.3-0.9 0.4-1.3zm12.7 0h-0.2c-0.1-0.1-0.2 0-0.2 0.1-0.1 0.4-0.3 0.8-0.3 1 0 0.2-0.1 0.3-0.1 0.5h1.1c0.1-0.1 0.1-0.2 0.1-0.3h-0.8c0.1-0.4 0.3-0.9 0.4-1.3zm4.7 0h-0.2c-0.1 0-0.1 0-0.1 0.1l-0.3 0.9-0.2 0.6h0.2c0.1 0 0.1 0 0.1-0.1 0.2-0.4 0.3-0.8 0.4-1.2 0.1-0.1 0.1-0.2 0.1-0.3zm2.9 0c-0.1 0-0.1 0-0.1 0.1l-0.3 1.2c0 0.1-0.1 0.2-0.1 0.3h0.2c0.1 0 0.1 0 0.1-0.1l0.3-0.9c0.1-0.2 0.1-0.4 0.2-0.6z"/><path fill-rule="evenodd" class="c" d="m336.1 17.5c0 2.5-1.5 3.9-4 3.9h-0.1v-1.7h0.3c1.1 0 2-1 1.9-2.1v-0.3c-0.1-1-1-1.7-2-1.6-0.4 0-0.8 0.1-1.2 0.2l-0.1 8.2h-2v-9.6c1-0.4 2.1-0.6 3.2-0.6 2.4 0 4 1.3 4 3.6zm5.9-6.6h2v10.2q-1.5 0.3-3 0.3c-2.5 0-4.1-1.3-4.1-3.7-0.1-2 1.3-3.7 3.3-3.8h0.4c0.5 0 0.9 0.1 1.4 0.2zm0 5c-0.4-0.2-0.8-0.2-1.2-0.2-1-0.1-1.9 0.7-2 1.7v0.3c-0.1 1.1 0.8 2 1.9 2.1h0.3c0.3 0 0.6 0 0.9-0.1zm-15.9-5h1.9v10.2h-0.1c-1 0.2-2 0.3-2.9 0.3-2.5 0-4.1-1.3-4.1-3.7-0.1-2 1.3-3.7 3.3-3.8h0.5c0.5 0 0.9 0.1 1.4 0.2zm-0.1 5c-0.4-0.2-0.8-0.2-1.2-0.2-1-0.1-1.9 0.7-2 1.7v0.3c-0.1 1.1 0.7 2.1 1.8 2.1h0.4c0.3 0 0.6 0 0.9-0.1z"/><path fill-rule="evenodd" class="e" d="m310.1 15.3l5.2-2.9v8.6c0 0.2-0.1 0.4-0.3 0.5l-7.9 4.6c-0.1 0.1-0.2 0.1-0.3 0.1-0.1 0-0.2-0.1-0.3-0.1l-7.9-4.6c-0.2-0.1-0.3-0.3-0.3-0.5v-8.6l7.7 4.4c0.1 0 0.1 0.1 0.1 0.1v6.5c0 0.1 0 0.1 0.1 0.2l0.5 0.2h0.2l0.4-0.2c0 0 0.1-0.1 0.1-0.2v-7.3c0-0.1 0-0.1-0.1-0.2l-8.7-5 7.8-4.2c0.1-0.1 0.2-0.1 0.3-0.1 0.1 0 0.2 0.1 0.3 0.1l7.8 4.2-5.5 3.2c-0.1 0-0.1 0.1-0.1 0.2v0.6l0.1 0.1 0.5 0.3zm-152.3-5.6l2.7 13.4h-3.2l-0.5-2.7h-4.1l-1 2.7h-3.6l5.2-12.3c0.3-0.7 1-1.2 1.8-1.1zm-1.5 8l-1.1-4.3c0 0-1.3 4.3-1.4 4.3zm-8 1c0 2.7-2.4 4.4-6 4.4-1.3 0-2.7-0.2-3.9-0.7l0.5-2.9 0.5 0.2c1.1 0.5 2.2 0.7 3.3 0.7 1 0 2.1-0.4 2.1-1.3 0-0.5-0.4-1-1.8-1.6-1.4-0.6-3.1-1.6-3.1-3.5 0-2.5 2.5-4.3 5.9-4.3 1-0.1 2.1 0.1 3.1 0.5l-0.5 2.8-0.3-0.1c-0.8-0.4-1.7-0.5-2.6-0.5-1.4 0-2 0.5-2 1.1 0 0.6 0.8 1 2 1.6 1.9 1 2.8 2.1 2.8 3.6zm-14.7-9l-5.5 13.4h-3.7l-3-11.3c2.2 1.5 3.9 3.4 4.7 5.3v-0.1l0.4 1.8 3.4-9.1zm4.9 0l-2.2 13.4h-3.5l2.2-13.4z"/><path class="f" d="m126.1 17.1v-0.2l-1.1-5.4c-0.3-1-1.2-1.8-2.3-1.7h-5.4l-0.1 0.2q2.2 0.6 4.2 1.8c2.2 1.5 3.9 3.4 4.7 5.3z"/><path class="e" d="m496.2 15c-0.6 0-1.2 0.4-1.3 1h2.6c-0.1-0.6-0.6-1-1.3-1zm-6.8 0.2c-0.8-0.1-1.4 0.5-1.5 1.3v0.2c0 0.8 0.6 1.5 1.5 1.5 0.8 0 1.5-0.6 1.5-1.5 0-0.8-0.7-1.5-1.5-1.5zm15.6 0.4c0-0.2 0.1-0.4 0.1-0.5-0.1-0.2-0.1-0.3-0.2-0.4 0 0.3 0.1 0.6 0.1 0.9z"/><path fill-rule="evenodd" class="e" d="m504.9 14.7c-0.5-0.7-1.4-1-2.4-1-1.6 0-2.8 0.7-2.8 2.3v3.4h1.6v-2.9c0-0.8 0.3-1.3 1.1-1.3 0.8 0 1.1 0.5 1.1 1.3v2.9h1.6c-1.1 4.1-4.2 7.4-8.3 8.6-6.5 2-13.3-1.6-15.3-8.1-0.1-0.3-0.1-0.7-0.2-1 0-0.1-0.1-0.2-0.1-0.3 0.1 0.1 0.1 0.2 0.2 0.3 0.2 0.3 0.5 0.4 0.9 0.5h3.7l0.2-1.4h-2.9c-0.5 0-0.7-0.3-0.7-0.8v-0.9h2.8l0.2-1.4h-3.1v-1.6h3.4l0.2-1.4h-4.3c1.9-4.6 6.4-7.5 11.3-7.5 6 0 11 4.4 11.8 10.3zm-12.3-2.8h-1.6v2.5c-0.4-0.4-1.1-0.6-1.7-0.6h-0.4c-1.5 0.1-2.7 1.4-2.6 2.9v0.2c0.1 1.5 1.5 2.7 3.1 2.6h0.4c1.7-0.1 2.9-1.5 2.8-3.2zm2.4 5.2h4.2c0.1-2-0.9-3.3-3-3.3h-0.2c-1.6 0-2.8 1.3-2.8 2.8v0.5c0.2 1.5 1.6 2.7 3.2 2.5 0.5 0 1.1-0.1 1.6-0.3l0.1-1.3c-0.5 0.2-0.9 0.3-1.4 0.3-0.8 0-1.6-0.5-1.7-1.2zm13.5-1.8c-0.2-0.1-0.4-0.1-0.6-0.1-0.8 0-1 0.5-1 1.3v2.9h-1.6v-3.4c0-0.3-0.1-0.6-0.2-0.9 0.4-1 1.3-1.4 2.5-1.4 0.3 0 0.7 0.1 1.2 0.2z"/><path fill-rule="evenodd" class="e" d="m514.3 16.9h-4.2c0.2 0.8 1 1.3 1.8 1.2 0.4 0 0.9-0.1 1.3-0.3l-0.1 1.3c-0.5 0.2-1.1 0.3-1.6 0.3h-0.4c-1.6 0-2.8-1.3-2.8-2.9v-0.3c0.1-1.5 1.5-2.6 3-2.5 2 0 3 1.2 3 3.2zm-1.7-1c-0.1-0.6-0.6-1-1.2-1-0.6 0-1.2 0.4-1.3 1zm8.4-4v4.9c-0.2 1.7-1.7 2.9-3.3 2.7h-0.2c-1.6 0-2.9-1.3-2.9-2.9v-0.3c0.1-1.5 1.5-2.6 3-2.5 0.6-0.1 1.2 0.2 1.7 0.6v-2.5zm-1.7 4.6c0-0.8-0.7-1.5-1.5-1.5-0.8 0-1.5 0.7-1.5 1.5v0.1c0 0.8 0.7 1.4 1.5 1.4h0.1c0.8 0 1.4-0.7 1.4-1.5zm-93.8-15.8h31.4v31.4h-31.4zm16.3 24.2l2.5-0.6v-3.5c0.8 0.6 1.8 0.9 2.8 0.9 2.8 0 5.1-2.4 5.1-5.3 0-2.9-2.3-5.3-5.1-5.3-1 0-2 0.3-2.8 0.9v-1.5l-2.5 0.6zm-10.8-17v8.9c0 3.5 2.4 4.8 4.7 4.8 3 0 4.9-1.9 4.9-4.4v-10l-2.6 0.6v8.5c0 1.7-0.4 2.9-2.2 2.9-2.1 0-2.3-1.4-2.3-2.6v-9.3l-2.6 0.6z"/><path class="e" d="m447 19.4c1.7 0 2.9-1.4 2.9-3 0-1.6-1.2-3-2.9-3-1.7 0-2.9 1.4-2.9 3 0 1.6 1.2 3 2.9 3z"/><path fill-rule="evenodd" class="h" d="m430.9 17.1v-9.1l2.6-0.6v9.3c0 1.1 0.3 2.6 2.3 2.6 1.8 0 2.2-1.3 2.2-2.9v-8.5l2.6-0.6v10c0 2.4-1.9 4.4-4.9 4.4-2.4 0-4.8-1.3-4.8-4.6zm13.4 7.3l-2.5 0.6v-13.9l2.5-0.6v1.5c0.8-0.6 1.8-0.9 2.8-0.9 2.8 0 5.1 2.4 5.1 5.3 0 2.9-2.3 5.3-5.1 5.3-1 0-2-0.3-2.8-0.9zm-0.2-8c0 1.6 1.2 3 2.9 3 1.7 0 2.9-1.4 2.9-3 0-1.6-1.2-3-2.9-3-1.7 0-2.9 1.3-2.9 3z"/><path fill-rule="evenodd" class="e" d="m408.8 19.1c-0.4 1.1-1.5 2.5-3.9 2.5-2.5 0-4.2-1.4-4.2-4 0-2.5 1.7-3.9 4.2-3.9 2.3 0 4 1.4 4 3.9 0 0.3 0 0.6 0 0.7h-5.6c0 0.7 0.5 1.5 1.6 1.5 0.6 0 1-0.3 1.2-0.7zm-5.3-2.3h3c0-0.5-0.5-1.2-1.5-1.2-1.1 0-1.5 0.7-1.5 1.2z"/><path fill-rule="evenodd" class="e" d="m370.6 17.6c0 2-1.2 3.9-3.7 3.9-0.9 0-1.7-0.3-2.3-0.9v3.7h-2.6v-10.3h2.5v0.9c0.5-0.6 1.4-1.1 2.5-1.1 2.1 0 3.6 1.5 3.6 3.8zm-2.6 0.1c0-0.9-0.7-1.7-1.7-1.7-1.1 0-1.7 0.8-1.7 1.7 0 0.9 0.7 1.6 1.7 1.6 1 0 1.7-0.7 1.7-1.6z"/><path class="e" d="m374 11v10.3h-2.6v-10.3z"/><path class="e" d="m380.2 14v3.8c0 0.6 0 0.9-0.3 1.1-0.2 0.3-0.6 0.4-1 0.4-0.4 0-0.7-0.1-1-0.4-0.2-0.2-0.3-0.5-0.3-1.1v-3.8h-2.6v4c0 1.2 0.2 1.9 0.8 2.5 0.6 0.7 1.4 1 2.3 1 1 0 1.7-0.4 2.2-1v0.8h2.5v-7.3z"/><path class="e" d="m391.2 14h-1.8l-1.9 1.9-1.9-1.9h-1.8v1.7l2 1.9-2 2v1.7h1.8l1.9-1.9 1.9 1.9h1.8v-1.7l-2-2 2-1.9v-1.7z"/><path fill-rule="evenodd" class="e" d="m399.8 19.1c-0.3 1.1-1.4 2.5-3.9 2.5-2.4 0-4.1-1.4-4.1-4 0-2.5 1.7-3.9 4.1-3.9 2.4 0 4.1 1.4 4.1 3.9 0 0.3-0.1 0.6-0.1 0.7h-5.5c0 0.7 0.4 1.5 1.6 1.5 0.5 0 1-0.3 1.2-0.7zm-5.4-2.3h3c0-0.5-0.4-1.2-1.5-1.2-1 0-1.5 0.7-1.5 1.2z"/></svg>